<?xml version="1.0" encoding="UTF-8" standalone="no"?>
<!-- Created with Inkscape (http://www.inkscape.org/) -->

<svg
   width="77.430786mm"
   height="34.730988mm"
   viewBox="0 0 77.430786 34.730988"
   version="1.1"
   id="svg12330"
   inkscape:version="1.1 (c4e8f9e, 2021-05-24)"
   sodipodi:docname="gappylogo.svg"
   xmlns:inkscape="http://www.inkscape.org/namespaces/inkscape"
   xmlns:sodipodi="http://sodipodi.sourceforge.net/DTD/sodipodi-0.dtd"
   xmlns:xlink="http://www.w3.org/1999/xlink"
   xmlns="http://www.w3.org/2000/svg"
   xmlns:svg="http://www.w3.org/2000/svg">
  <sodipodi:namedview
     id="namedview12332"
     pagecolor="#ffffff"
     bordercolor="#666666"
     borderopacity="1.0"
     inkscape:pageshadow="2"
     inkscape:pageopacity="0.0"
     inkscape:pagecheckerboard="0"
     inkscape:document-units="mm"
     showgrid="false"
     fit-margin-top="0"
     fit-margin-left="0"
     fit-margin-right="0"
     fit-margin-bottom="0"
     inkscape:zoom="0.69664703"
     inkscape:cx="176.56"
     inkscape:cy="371.06309"
     inkscape:window-width="1852"
     inkscape:window-height="1016"
     inkscape:window-x="0"
     inkscape:window-y="0"
     inkscape:window-maximized="1"
     inkscape:current-layer="layer1" />
  <defs
     id="defs12327">
    <linearGradient
       inkscape:collect="always"
       xlink:href="#linearGradient3705"
       id="linearGradient5211"
       gradientUnits="userSpaceOnUse"
       gradientTransform="translate(-9.228853,-136.53665)"
       x1="88.022705"
       y1="200.69856"
       x2="88.410751"
       y2="200.67041"
       spreadMethod="reflect" />
    <linearGradient
       inkscape:collect="always"
       id="linearGradient3705">
      <stop
         style="stop-color:#f8aa76;stop-opacity:1"
         offset="0"
         id="stop3701" />
      <stop
         style="stop-color:#fbdeca;stop-opacity:0.97254908"
         offset="1"
         id="stop3703" />
    </linearGradient>
    <linearGradient
       inkscape:collect="always"
       xlink:href="#linearGradient3705"
       id="linearGradient5209"
       gradientUnits="userSpaceOnUse"
       gradientTransform="translate(-9.228853,-136.53665)"
       x1="86.762878"
       y1="200.72032"
       x2="89.171898"
       y2="200.94757" />
    <linearGradient
       inkscape:collect="always"
       xlink:href="#linearGradient3705"
       id="linearGradient5207"
       gradientUnits="userSpaceOnUse"
       gradientTransform="translate(-9.228853,-136.53665)"
       x1="94.261696"
       y1="201.16252"
       x2="96.194298"
       y2="201.08511" />
    <linearGradient
       inkscape:collect="always"
       xlink:href="#linearGradient3705"
       id="linearGradient5205"
       gradientUnits="userSpaceOnUse"
       gradientTransform="matrix(-1,0,0,1,203.54294,-138.13237)"
       x1="88.022705"
       y1="200.69856"
       x2="88.410751"
       y2="200.67041"
       spreadMethod="reflect" />
    <linearGradient
       inkscape:collect="always"
       xlink:href="#linearGradient3705"
       id="linearGradient5203"
       gradientUnits="userSpaceOnUse"
       gradientTransform="matrix(-1,0,0,1,203.78381,-137.61209)"
       x1="86.762878"
       y1="200.72032"
       x2="89.171898"
       y2="200.94757" />
    <linearGradient
       inkscape:collect="always"
       xlink:href="#linearGradient3705"
       id="linearGradient5201"
       gradientUnits="userSpaceOnUse"
       gradientTransform="matrix(-1,0,0,1,203.86022,-136.95925)"
       x1="94.261696"
       y1="201.16252"
       x2="96.194298"
       y2="201.08511" />
    <linearGradient
       inkscape:collect="always"
       xlink:href="#linearGradient10854"
       id="linearGradient5199"
       gradientUnits="userSpaceOnUse"
       gradientTransform="translate(-13.892733,-185.66455)"
       x1="113.69996"
       y1="251.52"
       x2="109.23409"
       y2="251.50873"
       spreadMethod="reflect" />
    <linearGradient
       inkscape:collect="always"
       id="linearGradient10854">
      <stop
         style="stop-color:#ffffff;stop-opacity:1"
         offset="0"
         id="stop10850" />
      <stop
         style="stop-color:#fff0b9;stop-opacity:0.99960107"
         offset="1"
         id="stop10852" />
    </linearGradient>
    <linearGradient
       inkscape:collect="always"
       xlink:href="#linearGradient10854"
       id="linearGradient5197"
       gradientUnits="userSpaceOnUse"
       gradientTransform="translate(-1.658933,-186.01971)"
       x1="113.69996"
       y1="251.52"
       x2="109.23409"
       y2="251.50873"
       spreadMethod="reflect" />
    <linearGradient
       inkscape:collect="always"
       xlink:href="#linearGradient10854"
       id="linearGradient5195"
       gradientUnits="userSpaceOnUse"
       gradientTransform="matrix(0.87482254,0,0,1.0010938,23.050898,-187.25033)"
       x1="112.15163"
       y1="251.45744"
       x2="109.58444"
       y2="251.5094"
       spreadMethod="reflect" />
    <linearGradient
       inkscape:collect="always"
       xlink:href="#linearGradient10854"
       id="linearGradient5193"
       gradientUnits="userSpaceOnUse"
       gradientTransform="matrix(-0.87482254,0,0,1.0010938,171.35592,-186.40529)"
       x1="112.15163"
       y1="251.45744"
       x2="109.58444"
       y2="251.5094"
       spreadMethod="reflect" />
    <linearGradient
       inkscape:collect="always"
       xlink:href="#linearGradient10854"
       id="linearGradient5189"
       gradientUnits="userSpaceOnUse"
       gradientTransform="matrix(-0.8360529,0,0,0.78136969,160.34505,-132.79336)"
       x1="112.15163"
       y1="251.45744"
       x2="109.58444"
       y2="251.5094"
       spreadMethod="reflect" />
    <linearGradient
       inkscape:collect="always"
       xlink:href="#linearGradient10854"
       id="linearGradient5185"
       gradientUnits="userSpaceOnUse"
       gradientTransform="matrix(-0.8360529,0,0,0.78136969,153.77565,-132.19119)"
       x1="112.15163"
       y1="251.45744"
       x2="109.58444"
       y2="251.5094"
       spreadMethod="reflect" />
    <linearGradient
       inkscape:collect="always"
       xlink:href="#linearGradient10854"
       id="linearGradient5183"
       gradientUnits="userSpaceOnUse"
       gradientTransform="matrix(0.75812255,0,0,0.73098336,41.817198,-121.6204)"
       x1="112.15163"
       y1="251.45744"
       x2="109.58444"
       y2="251.5094"
       spreadMethod="reflect" />
    <linearGradient
       inkscape:collect="always"
       xlink:href="#linearGradient10854"
       id="linearGradient5181"
       gradientUnits="userSpaceOnUse"
       gradientTransform="matrix(0.8360529,0,0,0.78136969,40.608678,-134.44552)"
       x1="112.15163"
       y1="251.45744"
       x2="109.58444"
       y2="251.5094"
       spreadMethod="reflect" />
    <linearGradient
       inkscape:collect="always"
       xlink:href="#linearGradient3455"
       id="linearGradient5179"
       gradientUnits="userSpaceOnUse"
       x1="-20.484028"
       y1="470.63074"
       x2="-20.564808"
       y2="485.94666"
       gradientTransform="translate(115.76716,-400.38219)" />
    <linearGradient
       inkscape:collect="always"
       id="linearGradient3455">
      <stop
         style="stop-color:#87cdde;stop-opacity:1;"
         offset="0"
         id="stop3451" />
      <stop
         style="stop-color:#87decd;stop-opacity:1"
         offset="1"
         id="stop3453" />
    </linearGradient>
    <linearGradient
       inkscape:collect="always"
       xlink:href="#linearGradient3455"
       id="linearGradient5177"
       gradientUnits="userSpaceOnUse"
       x1="-19.843588"
       y1="457.93347"
       x2="-19.673487"
       y2="449.10007"
       gradientTransform="translate(115.76716,-400.38219)" />
    <linearGradient
       inkscape:collect="always"
       xlink:href="#linearGradient10854"
       id="linearGradient12740"
       gradientUnits="userSpaceOnUse"
       gradientTransform="matrix(-0.87482254,0,0,1.0010938,171.35592,-186.40529)"
       x1="112.15163"
       y1="251.45744"
       x2="109.58444"
       y2="251.5094"
       spreadMethod="reflect" />
    <linearGradient
       inkscape:collect="always"
       xlink:href="#linearGradient10854"
       id="linearGradient12742"
       gradientUnits="userSpaceOnUse"
       gradientTransform="matrix(-0.8360529,0,0,0.78136969,160.34505,-132.79336)"
       x1="112.15163"
       y1="251.45744"
       x2="109.58444"
       y2="251.5094"
       spreadMethod="reflect" />
  </defs>
  <g
     inkscape:label="Layer 1"
     inkscape:groupmode="layer"
     id="layer1"
     transform="translate(-58.132436,-50.238083)">
    <path
       style="fill:#dcdcdc;fill-opacity:1;stroke:#787878;stroke-width:0.264583px;stroke-linecap:butt;stroke-linejoin:miter;stroke-opacity:1"
       d="m 58.845518,57.55818 c 2.5789,2.19795 3.39997,4.13097 6.06156,6.30972 2.0634,1.68907 5.95727,3.72465 8.03593,4.88359 6.25142,3.48542 13.94412,4.88664 20.6003,5.29697 8.296312,0.51144 17.306642,-1.10841 26.096862,-6.28582 5.19847,-3.06189 9.76777,-7.51577 15.56435,-13.10817 -9.17453,0.7546 -18.1307,3.46124 -29.57648,3.44014 -1.73558,-0.003 -3.49909,0.15187 -5.30215,0.15854 -11.635682,0.043 -27.590232,0.39165 -41.480372,-0.69497"
       id="path5063"
       sodipodi:nodetypes="csssscssc" />
    <path
       style="fill:#4d4d4d;fill-opacity:1;stroke:#787878;stroke-width:0.264583px;stroke-linecap:butt;stroke-linejoin:miter;stroke-opacity:1"
       d="m 58.218248,58.0716 c 2.5789,2.19795 3.39997,4.13097 6.06156,6.30972 2.0634,1.68907 5.95727,3.72465 8.03594,4.88359 6.2514,3.48542 13.9441,4.88664 20.60028,5.29697 8.296312,0.51144 17.306642,-1.10841 26.096862,-6.28582 5.19847,-3.06189 9.76777,-7.51577 15.56435,-13.10817 -9.17453,0.7546 -18.1307,3.46124 -29.57648,3.44014 -1.73558,-0.003 -3.49909,0.15187 -5.302152,0.15854 -11.63568,0.043 -27.59022,0.39165 -41.48036,-0.69497"
       id="path5065"
       sodipodi:nodetypes="csssscssc" />
    <path
       style="fill:none;stroke:#787878;stroke-width:0.264583px;stroke-linecap:butt;stroke-linejoin:miter;stroke-opacity:1"
       d="m 66.533378,59.42799 0.0505,5.65393 c 8.39151,4.81379 15.08023,8.43776 28.98109,8.84836 0.92167,-4.4505 0.60614,-9.88564 0.16839,-15.7131 -17.89933,0.54778 -18.17919,0.0762 -28.44847,-0.0437 z"
       id="path5067"
       sodipodi:nodetypes="cccccc" />
    <path
       style="fill:none;stroke:#787878;stroke-width:0.264583px;stroke-linecap:butt;stroke-linejoin:miter;stroke-opacity:1"
       d="m 127.73327,60.17086 -0.98596,2.54895 c -7.84256,6.0573 -17.69515,11.3967 -27.851972,11.33563 0.0383,-4.29345 -0.61535,-12.18117 0.73869,-15.79848 9.211342,0.21092 19.085062,-0.81086 27.676312,-2.36092 z"
       id="path5069"
       sodipodi:nodetypes="cccccc" />
    <path
       style="fill:url(#linearGradient5211);fill-opacity:1;stroke:#787878;stroke-width:0.264583px;stroke-linecap:butt;stroke-linejoin:miter;stroke-opacity:1"
       d="m 71.094688,58.35001 c 0.61173,3.74905 0.8261,6.15945 0.20133,9.30405 l 1.946,1.03906 c -1.19726,-3.39932 -1.20702,-6.82795 -0.3235,-10.27862 -0.58229,-0.0154 -0.88343,-0.23558 -1.82383,-0.0645 z"
       id="path5071"
       sodipodi:nodetypes="ccccc" />
    <path
       style="fill:none;stroke:#787878;stroke-width:0.292143px;stroke-linecap:butt;stroke-linejoin:miter;stroke-opacity:1"
       d="m 77.891318,58.57364 c 0.59984,4.66129 1.04494,8.56054 0.4323,12.47031 l 1.67331,0.38955 c -1.174,-4.22646 -1.18357,-8.48937 -0.3172,-12.77968 -0.57099,-0.0191 -0.86627,-0.2929 -1.78841,-0.0802 z"
       id="path5073"
       sodipodi:nodetypes="cccccc" />
    <path
       style="fill:url(#linearGradient5209);fill-opacity:1;stroke:#787878;stroke-width:0.292143px;stroke-linecap:butt;stroke-linejoin:miter;stroke-opacity:1"
       d="m 77.891318,58.57364 c 0.59984,4.66129 1.04494,8.56054 0.4323,12.47031 l 1.67331,0.38955 c -1.174,-4.22646 -1.18357,-8.48937 -0.3172,-12.77968 -0.57099,-0.0191 -0.86627,-0.2929 -1.78841,-0.0802 z"
       id="path5075"
       sodipodi:nodetypes="cccccc" />
    <path
       style="fill:url(#linearGradient5207);fill-opacity:1;stroke:#787878;stroke-width:0.312217px;stroke-linecap:butt;stroke-linejoin:miter;stroke-opacity:1"
       d="m 84.919678,58.40007 c 0.59304,5.38498 1.03309,9.8896 0.42741,14.40639 l 1.65432,0.45004 c -1.16068,-4.88264 -1.17014,-9.8074 -0.31361,-14.76381 -0.56451,-0.0221 -0.85644,-0.33836 -1.76812,-0.0926 z"
       id="path5077"
       sodipodi:nodetypes="cccccc" />
    <path
       style="fill:url(#linearGradient5205);fill-opacity:1;stroke:#787878;stroke-width:0.264583px;stroke-linecap:butt;stroke-linejoin:miter;stroke-opacity:1"
       d="m 123.2194,56.7543 c -0.61173,3.74905 -0.66576,5.56709 -0.041,8.71169 l -2.37075,1.54332 c 1.19726,-3.39932 1.47143,-6.73985 0.5879,-10.19052 0.5823,-0.0154 0.95614,-0.47896 1.89655,-0.30788 z"
       id="path5079"
       sodipodi:nodetypes="cccccc" />
    <path
       style="fill:url(#linearGradient5203);fill-opacity:1;stroke:#787878;stroke-width:0.292143px;stroke-linecap:butt;stroke-linejoin:miter;stroke-opacity:1"
       d="m 116.66364,57.4982 c -0.59984,4.66129 -0.89952,8.10068 -0.28689,12.01045 l -1.81873,0.84941 c 1.17401,-4.22646 1.18357,-8.48937 0.31721,-12.77968 0.57099,-0.0191 0.86627,-0.2929 1.78841,-0.0802 z"
       id="path5081"
       sodipodi:nodetypes="cccccc" />
    <path
       style="fill:url(#linearGradient5201);fill-opacity:1;stroke:#787878;stroke-width:0.312217px;stroke-linecap:butt;stroke-linejoin:miter;stroke-opacity:1"
       d="m 109.71168,57.97747 c -0.59304,5.38498 -1.03308,9.8896 -0.4274,14.40639 l -1.65433,0.45004 c 1.16069,-4.88264 1.17014,-9.8074 0.31361,-14.76381 0.56451,-0.0221 0.85644,-0.33836 1.76812,-0.0926 z"
       id="path5083"
       sodipodi:nodetypes="cccccc" />
    <path
       style="fill:url(#linearGradient5199);fill-opacity:1;stroke:#787878;stroke-width:0.264583px;stroke-linecap:butt;stroke-linejoin:miter;stroke-opacity:1"
       d="m 86.822908,58.69817 9.03075,-0.31329 c 0.55705,5.50645 0.65322,10.83232 -0.404,15.7063 l -8.21312,-0.68241 c -1.00816,-4.67674 -1.63925,-9.45174 -0.41363,-14.7106 z"
       id="path5085"
       sodipodi:nodetypes="ccccc" />
    <path
       style="fill:url(#linearGradient5197);fill-opacity:1;stroke:#787878;stroke-width:0.264583px;stroke-linecap:butt;stroke-linejoin:miter;stroke-opacity:1"
       d="m 99.056708,58.34301 c 7.228862,0.26271 6.131272,0.11991 9.009492,0.004 0.55705,5.50645 0.78478,9.73861 -0.27244,14.61259 -2.96347,0.38926 -6.12738,1.18882 -8.750012,0.88041 -1.00816,-4.67674 -1.21267,-10.23813 0.013,-15.49699 z"
       id="path5087"
       sodipodi:nodetypes="cccccc" />
    <path
       style="fill:url(#linearGradient5195);fill-opacity:1;stroke:#787878;stroke-width:0.247605px;stroke-linecap:butt;stroke-linejoin:miter;stroke-opacity:1"
       d="m 114.86442,57.68267 c 0.80471,5.43526 1.22757,7.58724 -0.16242,12.57969 -1.58829,0.55171 -2.458,1.30408 -5.26629,1.96612 -0.88196,-4.68186 -0.64624,-8.93967 0.42603,-14.20428 5.33951,-0.67179 4.11327,-0.4289 5.00268,-0.34153 z"
       id="path5089"
       sodipodi:nodetypes="ccccc" />
    <path
       style="fill:url(#linearGradient12740);fill-opacity:1;stroke:#787878;stroke-width:0.247605px;stroke-linecap:butt;stroke-linejoin:miter;stroke-opacity:1"
       d="m 79.542408,58.5277 c -0.80471,5.43526 -1.08156,7.98459 0.30843,12.97704 1.58833,0.55181 0.19494,-0.26119 5.44702,1.39917 0.88196,-4.68186 0.55052,-10.03705 -0.45543,-14.47738 -5.40291,0.32911 -4.4107,0.0152 -5.30002,0.10117 z"
       id="path5091"
       sodipodi:nodetypes="ccccc" />
    <path
       style="fill:url(#linearGradient5193);fill-opacity:1;stroke:#787878;stroke-width:0.247605px;stroke-linecap:butt;stroke-linejoin:miter;stroke-opacity:1"
       d="m 79.542408,58.5277 c -0.80471,5.43526 -1.08156,7.98459 0.30843,12.97704 1.58833,0.55181 0.19494,-0.26119 5.44702,1.39917 0.88196,-4.68186 0.55052,-10.03705 -0.45543,-14.47738 -5.40291,0.32911 -4.4107,0.0152 -5.30002,0.10117 z"
       id="path5093"
       sodipodi:nodetypes="ccccc" />
    <path
       style="fill:url(#linearGradient12742);fill-opacity:1;stroke:#787878;stroke-width:0.213849px;stroke-linecap:butt;stroke-linejoin:miter;stroke-opacity:1"
       d="m 72.600458,58.38074 c -0.76905,4.24231 -1.03362,6.2321 0.29477,10.12879 0.1115,-0.32163 0.0632,0.97849 5.45463,2.47349 0.69699,-3.7149 -0.0704,-9.3599 -0.68425,-12.68124 -5.16348,0.25687 -4.21524,0.0119 -5.06515,0.079 z"
       id="path5095"
       sodipodi:nodetypes="cccccc" />
    <path
       style="fill:url(#linearGradient5189);fill-opacity:1;stroke:#787878;stroke-width:0.213849px;stroke-linecap:butt;stroke-linejoin:miter;stroke-opacity:1"
       d="m 72.600458,58.38074 c -0.76905,4.24231 -1.03362,6.2321 0.29477,10.12879 0.1115,-0.32163 0.0632,0.97849 5.45463,2.47349 0.69699,-3.7149 -0.0704,-9.3599 -0.68425,-12.68124 -5.16348,0.25687 -4.21524,0.0119 -5.06515,0.079 z"
       id="path5097"
       sodipodi:nodetypes="cccccc" />
    <path
       style="fill:url(#linearGradient5185);fill-opacity:1;stroke:#787878;stroke-width:0.213849px;stroke-linecap:butt;stroke-linejoin:miter;stroke-opacity:1"
       d="m 66.665198,65.06685 c 0.82095,0.65369 0.82532,0.82666 5.09824,2.90024 0.0471,-3.96016 -0.16293,-6.28745 -0.59747,-9.63491 -1.12696,-0.15281 -2.49108,-0.0917 -3.91516,-0.16144 -0.8334,-0.0408 -1.48183,3.30731 -0.58561,6.89611 z"
       id="path5099"
       sodipodi:nodetypes="cccsc" />
    <path
       style="fill:url(#linearGradient5183);fill-opacity:1;stroke:#787878;stroke-width:0.196963px;stroke-linecap:butt;stroke-linejoin:miter;stroke-opacity:1"
       d="m 121.38292,57.22592 c 0.69736,3.96874 0.924,5.98363 -0.28057,9.62904 -0.1156,-0.36359 0.012,0.34636 -4.70363,2.49452 -0.63202,-3.47534 -0.18276,-8.84383 0.37391,-11.95099 5.54332,-0.7213 3.86584,-0.76837 4.59244,-0.64498 z"
       id="path5101"
       sodipodi:nodetypes="cccccc" />
    <path
       style="fill:url(#linearGradient5181);fill-opacity:1;stroke:#787878;stroke-width:0.213849px;stroke-linecap:butt;stroke-linejoin:miter;stroke-opacity:1"
       d="m 127.78359,61.72462 c -1.22348,0.83433 -1.6849,1.98396 -5.18911,4.10913 -0.0471,-3.96016 0.18603,-6.06092 0.62057,-9.40838 1.12696,-0.15281 2.49269,-0.50856 3.91848,-0.50896 0.32422,-9e-5 0.40774,2.31044 0.65006,5.80821 z"
       id="path5103"
       sodipodi:nodetypes="cccsc" />
    <path
       style="fill:url(#linearGradient5179);fill-opacity:1;stroke:#000000;stroke-width:0.264583px;stroke-linecap:butt;stroke-linejoin:miter;stroke-opacity:1"
       d="m 58.465318,58.37834 c 25.45748,37.2028 53.643022,34.39759 76.523562,-3.53456 -21.46059,22.27299 -49.829412,21.53267 -76.523562,3.53456 z"
       id="path5105"
       sodipodi:nodetypes="ccc" />
    <path
       style="fill:url(#linearGradient5177);fill-opacity:1;stroke:#787878;stroke-width:0.264583px;stroke-linecap:butt;stroke-linejoin:miter;stroke-opacity:1"
       d="m 58.475718,57.85307 c 24.15976,-9.92616 50.506912,-8.92902 76.936652,-3.08643 -23.95396,5.05857 -50.161502,5.66748 -76.936652,3.08643 z"
       id="path5107"
       sodipodi:nodetypes="ccc" />
    <path
       style="fill:#000000;fill-opacity:1;stroke:#787878;stroke-width:0.318314px;stroke-linecap:butt;stroke-linejoin:miter;stroke-opacity:1"
       d="m 94.669138,77.43352 c -0.75068,-1.17144 -0.44682,-3.43514 -0.0249,-4.90769 0.10689,-0.45722 -0.96545,-0.99568 -0.57049,0.55676 0.0877,0.34472 -0.32544,1.33243 -0.24381,1.69917 0.0502,0.22532 0.27257,0.769 0.21629,0.99212 -0.0309,0.12249 0.77601,2.84676 1.0897,2.35465"
       id="path5109"
       sodipodi:nodetypes="ccsssc" />
    <path
       style="fill:#000000;fill-opacity:1;stroke:#787878;stroke-width:0.289594px;stroke-linecap:butt;stroke-linejoin:miter;stroke-opacity:1"
       d="m 90.002868,76.35873 c -0.76616,-0.95002 -0.45603,-2.78581 -0.0255,-3.98001 0.10909,-0.37079 -0.98535,-0.80747 -0.58226,0.45152 0.0895,0.27956 -0.33214,1.08056 -0.24883,1.37798 0.0512,0.18272 0.27819,0.62364 0.22075,0.80459 -0.0316,0.0993 0.79201,2.30863 1.11216,1.90955"
       id="path5111"
       sodipodi:nodetypes="ccsssc" />
    <path
       style="fill:#000000;fill-opacity:1;stroke:#787878;stroke-width:0.322737px;stroke-linecap:butt;stroke-linejoin:miter;stroke-opacity:1"
       d="m 98.236068,77.56434 c 0.74851,-1.20774 0.44552,-3.54153 0.0249,-5.0597 -0.10658,-0.47137 0.96265,-1.02651 0.56884,0.57401 -0.0875,0.3554 0.3245,1.3737 0.2431,1.75179 -0.05,0.2323 -0.27178,0.79282 -0.21567,1.02286 0.0308,0.12628 -0.77376,2.93491 -1.08654,2.42756"
       id="path5113"
       sodipodi:nodetypes="ccsssc" />
    <path
       style="fill:#000000;fill-opacity:1;stroke:#787878;stroke-width:0.300416px;stroke-linecap:butt;stroke-linejoin:miter;stroke-opacity:1"
       d="m 102.58233,76.58005 c 0.7604,-1.03009 0.4526,-3.02063 0.0253,-4.3155 -0.10827,-0.40204 0.97794,-0.87553 0.57788,0.48958 -0.0889,0.30313 0.32964,1.17165 0.24696,1.49414 -0.0508,0.19812 -0.2761,0.67621 -0.21909,0.87241 0.0313,0.1077 -0.78605,2.50324 -1.1038,2.07051"
       id="path5115"
       sodipodi:nodetypes="ccsssc" />
    <path
       style="fill:#000000;fill-opacity:1;stroke:#787878;stroke-width:0.293294px;stroke-linecap:butt;stroke-linejoin:miter;stroke-opacity:1"
       d="m 107.1153,75.1883 c 0.76418,-0.97697 0.45485,-2.86482 0.0254,-4.0929 -0.10882,-0.3813 0.98281,-0.83037 0.58075,0.46433 -0.0893,0.28749 0.33129,1.11121 0.2482,1.41706 -0.0511,0.18791 -0.27748,0.64133 -0.22019,0.82741 0.0315,0.10215 -0.78997,2.37412 -1.1093,1.96371"
       id="path5117"
       sodipodi:nodetypes="ccsssc" />
    <path
       style="fill:#000000;fill-opacity:1;stroke:#787878;stroke-width:0.302799px;stroke-linecap:butt;stroke-linejoin:miter;stroke-opacity:1"
       d="m 111.54128,74.44585 c 0.75912,-1.04825 0.45184,-3.07387 0.0252,-4.39157 -0.10809,-0.40913 0.9763,-0.89096 0.57691,0.49822 -0.0887,0.30846 0.3291,1.1923 0.24655,1.52047 -0.0507,0.20161 -0.27564,0.68813 -0.21873,0.88778 0.0313,0.10961 -0.78474,2.54737 -1.10195,2.10701"
       id="path5119"
       sodipodi:nodetypes="ccsssc" />
    <path
       style="fill:#000000;fill-opacity:1;stroke:#787878;stroke-width:0.264583px;stroke-linecap:butt;stroke-linejoin:miter;stroke-opacity:1"
       d="m 115.43812,72.05112 c 0.77947,-0.77946 0.46395,-2.28567 0.0259,-3.26548 -0.11099,-0.30422 1.00247,-0.6625 0.59237,0.37046 -0.0911,0.22937 0.33792,0.88657 0.25316,1.13059 -0.0521,0.14992 -0.28303,0.51168 -0.22459,0.66014 0.0321,0.0815 -0.80577,1.89417 -1.13149,1.56673"
       id="path5121"
       sodipodi:nodetypes="ccsssc" />
    <path
       style="fill:#000000;fill-opacity:1;stroke:#787878;stroke-width:0.243646px;stroke-linecap:butt;stroke-linejoin:miter;stroke-opacity:1"
       d="m 119.08947,69.5069 c 0.79061,-0.65166 0.47058,-1.91092 0.0263,-2.73008 -0.11258,-0.25434 1.0168,-0.55388 0.60084,0.30972 -0.0924,0.19176 0.34275,0.74121 0.25678,0.94522 -0.0528,0.12534 -0.28708,0.42779 -0.2278,0.55191 0.0326,0.0681 -0.8173,1.5836 -1.14767,1.30985"
       id="path5123"
       sodipodi:nodetypes="ccsssc" />
    <path
       style="fill:#000000;fill-opacity:1;stroke:#787878;stroke-width:0.223632px;stroke-linecap:butt;stroke-linejoin:miter;stroke-opacity:1"
       d="m 122.36178,67.1671 c 0.80127,-0.5417 0.47693,-1.58846 0.0266,-2.2694 -0.11409,-0.21142 1.03051,-0.46041 0.60894,0.25746 -0.0936,0.1594 0.34738,0.61614 0.26024,0.78572 -0.0536,0.10419 -0.29094,0.3556 -0.23087,0.45878 0.033,0.0566 -0.82831,1.31638 -1.16314,1.08882"
       id="path5125"
       sodipodi:nodetypes="ccsssc" />
    <path
       style="fill:#000000;fill-opacity:1;stroke:#787878;stroke-width:0.223327px;stroke-linecap:butt;stroke-linejoin:miter;stroke-opacity:1"
       d="m 125.97841,64.95984 c 0.80144,-0.54011 0.47703,-1.58381 0.0266,-2.26274 -0.11411,-0.21081 1.03072,-0.45907 0.60907,0.2567 -0.0937,0.15893 0.34744,0.61433 0.26029,0.78342 -0.0536,0.10388 -0.29101,0.35455 -0.23092,0.45743 0.033,0.0565 -0.82847,1.31252 -1.16337,1.08563"
       id="path5127"
       sodipodi:nodetypes="ccsssc" />
    <path
       style="fill:#000000;fill-opacity:1;stroke:#787878;stroke-width:0.292079px;stroke-linecap:butt;stroke-linejoin:miter;stroke-opacity:1"
       d="m 86.416608,75.47328 c -0.76483,-0.96806 -0.45523,-2.83873 -0.0254,-4.05563 0.10891,-0.37783 -0.98364,-0.8228 -0.58124,0.4601 0.0894,0.28488 -0.33157,1.1011 -0.24841,1.40416 0.0511,0.1862 0.27772,0.63549 0.22038,0.81988 -0.0315,0.10122 0.79063,2.3525 1.11024,1.94583"
       id="path5129"
       sodipodi:nodetypes="ccsssc" />
    <path
       style="fill:#000000;fill-opacity:1;stroke:#787878;stroke-width:0.295351px;stroke-linecap:butt;stroke-linejoin:miter;stroke-opacity:1"
       d="m 82.728748,74.58589 c -0.76309,-0.99214 -0.4542,-2.90933 -0.0254,-4.15648 0.10866,-0.38723 -0.9814,-0.84327 -0.57992,0.47154 0.0892,0.29195 -0.33082,1.12847 -0.24784,1.43907 0.051,0.19083 0.27709,0.6513 0.21987,0.84027 -0.0314,0.10373 0.78884,2.411 1.10771,1.99422"
       id="path5131"
       sodipodi:nodetypes="ccsssc" />
    <path
       style="fill:#000000;fill-opacity:1;stroke:#787878;stroke-width:0.264583px;stroke-linecap:butt;stroke-linejoin:miter;stroke-opacity:1"
       d="m 78.526338,72.55795 c -0.77947,-0.77946 -0.46395,-2.28567 -0.0259,-3.26548 0.11099,-0.30422 -1.00247,-0.6625 -0.59237,0.37046 0.0911,0.22937 -0.33792,0.88657 -0.25316,1.13059 0.0521,0.14992 0.28303,0.51168 0.22459,0.66014 -0.0321,0.0815 0.80577,1.89417 1.13149,1.56673"
       id="path5133"
       sodipodi:nodetypes="ccsssc" />
    <path
       style="fill:#000000;fill-opacity:1;stroke:#787878;stroke-width:0.264583px;stroke-linecap:butt;stroke-linejoin:miter;stroke-opacity:1"
       d="m 78.526338,72.55795 c -0.77947,-0.77946 -0.46395,-2.28567 -0.0259,-3.26548 0.11099,-0.30422 -1.00247,-0.6625 -0.59237,0.37046 0.0911,0.22937 -0.33792,0.88657 -0.25316,1.13059 0.0521,0.14992 0.28303,0.51168 0.22459,0.66014 -0.0321,0.0815 0.80577,1.89417 1.13149,1.56673"
       id="path5135"
       sodipodi:nodetypes="ccsssc" />
    <path
       style="fill:#000000;fill-opacity:1;stroke:#787878;stroke-width:0.239938px;stroke-linecap:butt;stroke-linejoin:miter;stroke-opacity:1"
       d="m 72.913938,69.38969 c -0.79259,-0.6304 -0.47176,-1.84857 -0.0263,-2.64101 0.11286,-0.24604 -1.01935,-0.5358 -0.60234,0.29962 0.0926,0.1855 -0.34361,0.71703 -0.25742,0.91438 0.053,0.12125 0.28779,0.41383 0.22837,0.5339 -0.0326,0.0659 0.81933,1.53194 1.15053,1.26712"
       id="path5137"
       sodipodi:nodetypes="ccsssc" />
    <path
       style="fill:#000000;fill-opacity:1;stroke:#787878;stroke-width:0.22875px;stroke-linecap:butt;stroke-linejoin:miter;stroke-opacity:1"
       d="m 69.809448,67.54223 c -0.79854,-0.56871 -0.4753,-1.66767 -0.0265,-2.38256 0.11371,-0.22197 -1.027,-0.48338 -0.60686,0.27029 0.0933,0.16736 -0.3462,0.64686 -0.25936,0.82491 0.0534,0.10938 0.28996,0.37333 0.23009,0.48165 -0.0329,0.0595 0.82549,1.38203 1.15918,1.14312"
       id="path5139"
       sodipodi:nodetypes="ccsssc" />
    <path
       style="fill:#000000;fill-opacity:1;stroke:#787878;stroke-width:0.244407px;stroke-linecap:butt;stroke-linejoin:miter;stroke-opacity:1"
       d="m 75.434468,70.789 c -0.79021,-0.65608 -0.47034,-1.92386 -0.0263,-2.74857 0.11252,-0.25607 -1.01629,-0.55763 -0.60053,0.31182 0.0924,0.19306 -0.34258,0.74623 -0.25665,0.95162 0.0528,0.12619 0.28693,0.43068 0.22768,0.55564 -0.0325,0.0686 0.81688,1.59433 1.14709,1.31872"
       id="path5141"
       sodipodi:nodetypes="ccsssc"
       inkscape:transform-center-x="-3.031782"
       inkscape:transform-center-y="-0.92569118" />
    <path
       style="fill:#000000;fill-opacity:1;stroke:#787878;stroke-width:0.232507px;stroke-linecap:butt;stroke-linejoin:miter;stroke-opacity:1"
       d="m 94.639688,56.52869 c -0.76307,0.61485 -0.45419,1.80299 -0.0254,2.57589 0.10866,0.23998 -0.98138,0.5226 -0.57991,-0.29223 0.0892,-0.18093 -0.33081,-0.69935 -0.24783,-0.89184 0.051,-0.11826 0.27708,-0.40362 0.21987,-0.52073 -0.0314,-0.0643 0.78882,-1.49417 1.10769,-1.23588"
       id="path5143"
       sodipodi:nodetypes="ccsssc" />
    <path
       style="fill:#000000;fill-opacity:1;stroke:#787878;stroke-width:0.202896px;stroke-linecap:butt;stroke-linejoin:miter;stroke-opacity:1"
       d="m 89.963508,57.23949 c -0.77095,0.46344 -0.45888,1.35897 -0.0256,1.94152 0.10978,0.18087 -0.99151,0.39389 -0.58589,-0.22026 0.0901,-0.13638 -0.33423,-0.52712 -0.2504,-0.6722 0.0515,-0.0891 0.27994,-0.30423 0.22214,-0.3925 -0.0317,-0.0484 0.79696,-1.12618 1.11912,-0.93151"
       id="path5145"
       sodipodi:nodetypes="ccsssc" />
    <path
       style="fill:#000000;fill-opacity:1;stroke:#787878;stroke-width:0.235738px;stroke-linecap:butt;stroke-linejoin:miter;stroke-opacity:1"
       d="m 98.342258,56.2836 c 0.76087,0.63391 0.45288,1.85884 0.0253,2.65568 -0.10834,0.24741 0.97855,0.53878 0.57823,-0.30128 -0.0889,-0.18654 0.32986,-0.72101 0.24712,-0.91946 -0.0509,-0.12192 -0.27627,-0.41612 -0.21923,-0.53686 0.0313,-0.0663 -0.78654,-1.54045 -1.10448,-1.27415"
       id="path5147"
       sodipodi:nodetypes="ccsssc" />
    <path
       style="fill:#000000;fill-opacity:1;stroke:#787878;stroke-width:0.210478px;stroke-linecap:butt;stroke-linejoin:miter;stroke-opacity:1"
       d="m 102.6217,56.70428 c 0.76515,0.50249 0.45542,1.47351 0.0254,2.10517 -0.10895,0.19612 0.98405,0.4271 0.58148,-0.23882 -0.0894,-0.14788 0.33172,-0.57156 0.24851,-0.72887 -0.0512,-0.0967 -0.27783,-0.32987 -0.22046,-0.42558 0.0315,-0.0525 -0.79097,-1.22112 -1.1107,-1.01003"
       id="path5149"
       sodipodi:nodetypes="ccsssc" />
    <path
       style="fill:#000000;fill-opacity:1;stroke:#787878;stroke-width:0.17562px;stroke-linecap:butt;stroke-linejoin:miter;stroke-opacity:1"
       d="m 107.16575,56.9705 c 0.7682,0.34845 0.45724,1.02178 0.0255,1.4598 -0.10938,0.13599 0.98798,0.29616 0.58381,-0.16561 -0.0898,-0.10254 0.33304,-0.39634 0.2495,-0.50542 -0.0514,-0.067 -0.27894,-0.22874 -0.22134,-0.29511 0.0316,-0.0364 -0.79413,-0.84677 -1.11514,-0.70039"
       id="path5151"
       sodipodi:nodetypes="ccsssc" />
    <path
       style="fill:#000000;fill-opacity:1;stroke:#787878;stroke-width:0.181478px;stroke-linecap:butt;stroke-linejoin:miter;stroke-opacity:1"
       d="m 111.68045,56.369 c 0.76212,0.37505 0.45362,1.0998 0.0253,1.57126 -0.10852,0.14638 0.98015,0.31877 0.57918,-0.17826 -0.0891,-0.11037 0.3304,-0.42659 0.24753,-0.54401 -0.0509,-0.0721 -0.27673,-0.24621 -0.21959,-0.31764 0.0314,-0.0392 -0.78783,-0.91142 -1.1063,-0.75387"
       id="path5153"
       sodipodi:nodetypes="ccsssc" />
    <path
       style="fill:#000000;fill-opacity:1;stroke:#787878;stroke-width:0.184808px;stroke-linecap:butt;stroke-linejoin:miter;stroke-opacity:1"
       d="m 116.10548,56.09732 c 0.78108,0.37951 0.46491,1.11285 0.026,1.5899 -0.11122,0.14811 1.00454,0.32255 0.59359,-0.18037 -0.0913,-0.11168 0.33862,-0.43166 0.25369,-0.55046 -0.0522,-0.073 -0.28362,-0.24913 -0.22506,-0.32141 0.0322,-0.0397 -0.80743,-0.92223 -1.13383,-0.76281"
       id="path5155"
       sodipodi:nodetypes="ccsssc" />
    <path
       style="fill:#000000;fill-opacity:1;stroke:#787878;stroke-width:0.182079px;stroke-linecap:butt;stroke-linejoin:miter;stroke-opacity:1"
       d="m 119.59171,55.75741 c 0.79182,0.36338 0.4713,1.06558 0.0263,1.52236 -0.11275,0.14183 1.01835,0.30886 0.60175,-0.1727 -0.0925,-0.10693 0.34328,-0.41332 0.25717,-0.52708 -0.0529,-0.0699 -0.28751,-0.23855 -0.22815,-0.30776 0.0326,-0.038 -0.81853,-0.88306 -1.14941,-0.73041"
       id="path5157"
       sodipodi:nodetypes="ccsssc" />
    <path
       style="fill:#000000;fill-opacity:1;stroke:#787878;stroke-width:0.177444px;stroke-linecap:butt;stroke-linejoin:miter;stroke-opacity:1"
       d="m 122.62042,55.2492 c 0.82501,0.33123 0.49106,0.97129 0.0274,1.38767 -0.11747,0.12927 1.06105,0.28152 0.62699,-0.15743 -0.0964,-0.0975 0.35767,-0.37675 0.26795,-0.48045 -0.0552,-0.0637 -0.29956,-0.21744 -0.23771,-0.28053 0.034,-0.0346 -0.85286,-0.80492 -1.19761,-0.66578"
       id="path5159"
       sodipodi:nodetypes="ccsssc" />
    <path
       style="fill:#000000;fill-opacity:1;stroke:#787878;stroke-width:0.173068px;stroke-linecap:butt;stroke-linejoin:miter;stroke-opacity:1"
       d="m 126.3142,55.04697 c 0.82726,0.31424 0.4924,0.92147 0.0274,1.31648 -0.11778,0.12265 1.06394,0.26709 0.6287,-0.14935 -0.0967,-0.0925 0.35864,-0.35742 0.26868,-0.4558 -0.0553,-0.0604 -0.30039,-0.20628 -0.23836,-0.26614 0.0341,-0.0329 -0.85517,-0.76363 -1.20086,-0.63162"
       id="path5161"
       sodipodi:nodetypes="ccsssc" />
    <path
       style="fill:#000000;fill-opacity:1;stroke:#787878;stroke-width:0.174892px;stroke-linecap:butt;stroke-linejoin:miter;stroke-opacity:1"
       d="m 86.411678,57.65458 c -0.76886,0.34528 -0.45763,1.01248 -0.0255,1.44651 0.10948,0.13476 -0.98882,0.29347 -0.5843,-0.1641 0.0899,-0.10161 -0.33332,-0.39273 -0.24972,-0.50082 0.0514,-0.0664 0.27918,-0.22666 0.22153,-0.29242 -0.0317,-0.0361 0.7948,-0.83906 1.11608,-0.69401"
       id="path5163"
       sodipodi:nodetypes="ccsssc" />
    <path
       style="fill:#000000;fill-opacity:1;stroke:#787878;stroke-width:0.177014px;stroke-linecap:butt;stroke-linejoin:miter;stroke-opacity:1"
       d="m 82.987268,57.46543 c -0.7661,0.35498 -0.45599,1.04093 -0.0255,1.48715 0.10908,0.13855 -0.98527,0.30171 -0.58221,-0.16871 0.0895,-0.10446 -0.33212,-0.40376 -0.24881,-0.51489 0.0512,-0.0683 0.27817,-0.23303 0.22073,-0.30064 -0.0315,-0.0371 0.79195,-0.86263 1.11208,-0.71351"
       id="path5165"
       sodipodi:nodetypes="ccsssc" />
    <path
       style="fill:#000000;fill-opacity:1;stroke:#787878;stroke-width:0.164769px;stroke-linecap:butt;stroke-linejoin:miter;stroke-opacity:1"
       d="m 77.416878,57.60079 c -0.7972,0.29556 -0.4745,0.86671 -0.0265,1.23824 0.11351,0.11536 -1.02527,0.25122 -0.60584,-0.14048 0.0932,-0.087 -0.34561,-0.33617 -0.25892,-0.4287 0.0533,-0.0568 0.28947,-0.19403 0.2297,-0.25032 -0.0328,-0.0309 0.82409,-0.71826 1.15722,-0.59409"
       id="path5167"
       sodipodi:nodetypes="ccsssc" />
    <path
       style="fill:#000000;fill-opacity:1;stroke:#787878;stroke-width:0.184808px;stroke-linecap:butt;stroke-linejoin:miter;stroke-opacity:1"
       d="m 79.480608,57.34062 c -0.78108,0.3795 -0.46491,1.11284 -0.0259,1.58989 0.11122,0.14812 -1.00454,0.32256 -0.59359,-0.18037 0.0913,-0.11167 -0.33862,-0.43165 -0.25369,-0.55046 0.0522,-0.073 0.28362,-0.24912 0.22506,-0.32141 -0.0322,-0.0397 0.80743,-0.92223 1.13382,-0.7628"
       id="path5169"
       sodipodi:nodetypes="ccsssc" />
    <path
       style="fill:#000000;fill-opacity:1;stroke:#787878;stroke-width:0.178524px;stroke-linecap:butt;stroke-linejoin:miter;stroke-opacity:1"
       d="m 71.478478,57.30688 c -0.82445,0.3355 -0.49072,0.98382 -0.0274,1.40557 0.1174,0.13094 -1.06031,0.28515 -0.62655,-0.15946 0.0964,-0.0987 -0.35742,-0.38162 -0.26777,-0.48665 0.0551,-0.0645 0.29936,-0.22024 0.23755,-0.28414 -0.034,-0.0351 0.85227,-0.81531 1.19678,-0.67437"
       id="path5171"
       sodipodi:nodetypes="ccsssc" />
    <path
       style="fill:#000000;fill-opacity:1;stroke:#787878;stroke-width:0.160108px;stroke-linecap:butt;stroke-linejoin:miter;stroke-opacity:1"
       d="m 68.505638,57.4777 c -0.83403,0.26676 -0.49643,0.78223 -0.0277,1.11755 0.11876,0.10412 -1.07264,0.22673 -0.63383,-0.12678 0.0975,-0.0785 -0.36158,-0.30341 -0.27088,-0.38693 0.0557,-0.0513 0.30284,-0.17511 0.24031,-0.22592 -0.0343,-0.0279 0.86216,-0.64824 1.21068,-0.53618"
       id="path5173"
       sodipodi:nodetypes="ccsssc" />
    <path
       style="fill:#000000;fill-opacity:1;stroke:#787878;stroke-width:0.170088px;stroke-linecap:butt;stroke-linejoin:miter;stroke-opacity:1"
       d="m 74.877438,57.41897 c -0.8292,0.30281 -0.49355,0.88793 -0.0276,1.26856 0.11807,0.11819 -1.06643,0.25737 -0.63017,-0.14391 0.0969,-0.0891 -0.35948,-0.34441 -0.26931,-0.43921 0.0554,-0.0582 0.30109,-0.19877 0.23892,-0.25645 -0.0341,-0.0317 0.85718,-0.73583 1.20368,-0.60863"
       id="path5175"
       sodipodi:nodetypes="ccsssc"
       inkscape:transform-center-x="-3.1813758"
       inkscape:transform-center-y="0.42723859" />
  </g>
</svg>
